<?xml version="1.0" encoding="UTF-8"?>
<svg fill="#FFFFFF" width="25pt" height="25pt" version="1.1" viewBox="0 0 100 100" xmlns="http://www.w3.org/2000/svg">
    <g>
        <path d="m12.5 29.855h75c1.1523 0 2.082-0.93359 2.082-2.0859 0-1.1484-0.92969-2.082-2.082-2.082h-75c-1.1523 0-2.082 0.93359-2.082 2.082 0 1.1523 0.92969 2.0859 2.082 2.0859z"/>
        <path d="m87.5 47.918h-75c-1.1523 0-2.082 0.92969-2.082 2.082s0.92969 2.082 2.082 2.082h75c1.1523 0 2.082-0.92969 2.082-2.082s-0.92969-2.082-2.082-2.082z"/>
        <path d="m87.5 70.145h-75c-1.1523 0-2.082 0.93359-2.082 2.0859 0 1.1484 0.92969 2.082 2.082 2.082h75c1.1523 0 2.082-0.93359 2.082-2.082 0-1.1523-0.92969-2.0859-2.082-2.0859z"/>
    </g>
</svg>
