<?xml version="1.0" encoding="UTF-8"?>
<svg fill="#FFFFFF" width="25pt" height="25pt" version="1.1" viewBox="0 0 100 100" xmlns="http://www.w3.org/2000/svg">
 <path d="m88 76h-76c-1.1016 0-2-0.89844-2-2v-4c0-1.1016 0.89844-2 2-2h76c1.1016 0 2 0.89844 2 2v4c0 1.1016-0.89844 2-2 2zm0-22h-76c-1.1016 0-2-0.89844-2-2v-4c0-1.1016 0.89844-2 2-2h76c1.1016 0 2 0.89844 2 2v4c0 1.1016-0.89844 2-2 2zm0-22h-76c-1.1016 0-2-0.89844-2-2v-4c0-1.1016 0.89844-2 2-2h76c1.1016 0 2 0.89844 2 2v4c0 1.1016-0.89844 2-2 2z" fill-rule="evenodd"/>
</svg>
